<svg xmlns="http://www.w3.org/2000/svg" id="Layer_1" viewBox="0 0 512 512"><defs><style>      .st0 {        fill: #fff;      }      .st1 {        fill: #f7931e;      }    </style></defs><g><path class="st0" d="M222.07,244.96c-4.23-2.37-7.53-5.67-9.91-9.91-2.37-4.23-3.56-9-3.56-14.3s1.19-10.07,3.56-14.3c2.37-4.23,5.67-7.53,9.91-9.91,4.23-2.37,9.03-3.56,14.38-3.56s10.07,1.19,14.3,3.56c4.23,2.37,7.53,5.67,9.91,9.91,2.37,4.23,3.56,9,3.56,14.3s-1.19,10.07-3.56,14.3c-2.37,4.23-5.67,7.53-9.91,9.91-4.23,2.37-9,3.56-14.3,3.56s-10.15-1.19-14.38-3.56ZM246.01,237.73c2.86-1.68,5.09-4.02,6.69-7,1.61-2.98,2.41-6.31,2.41-9.98s-.8-7-2.41-9.98c-1.61-2.98-3.84-5.32-6.69-7-2.86-1.68-6.04-2.52-9.56-2.52s-6.77.84-9.6,2.52c-2.83,1.68-5.06,4-6.69,6.96-1.63,2.96-2.45,6.3-2.45,10.02s.81,7.06,2.45,10.02c1.63,2.96,3.86,5.28,6.69,6.96,2.83,1.68,6.03,2.52,9.6,2.52s6.71-.84,9.56-2.52Z"></path><path class="st0" d="M246.01,309.59c-2.86,1.68-6.05,2.53-9.56,2.53s-6.77-.84-9.6-2.53c-2.83-1.68-5.06-4-6.69-6.96-1.63-2.96-2.45-6.3-2.45-10.03s.82-7.06,2.45-10.02c1.63-2.96,3.86-5.28,6.69-6.96,2.83-1.68,6.03-2.53,9.6-2.53s6.71.84,9.56,2.53c2.26,1.33,4.12,3.07,5.6,5.21l7.92-4.36c-2.25-3.36-5.17-6.06-8.78-8.07-4.23-2.37-9-3.55-14.3-3.55s-10.15,1.18-14.38,3.55c-4.23,2.37-7.54,5.68-9.91,9.91-2.37,4.24-3.55,9-3.55,14.3s1.18,10.08,3.55,14.3c2.37,4.24,5.68,7.54,9.91,9.91,4.24,2.37,9.03,3.55,14.38,3.55s10.08-1.18,14.3-3.55c3.6-2.02,6.53-4.71,8.78-8.07l-7.91-4.37c-1.48,2.15-3.35,3.89-5.61,5.22Z"></path><path class="st0" d="M498.48,309.59c-2.86,1.68-6.05,2.53-9.56,2.53s-6.77-.84-9.6-2.53c-2.83-1.68-5.06-4-6.69-6.96-1.63-2.96-2.45-6.3-2.45-10.03s.82-7.06,2.45-10.02c1.63-2.96,3.86-5.28,6.69-6.96,2.83-1.68,6.03-2.53,9.6-2.53s6.71.84,9.56,2.53c2.26,1.33,4.12,3.07,5.6,5.21l7.92-4.36c-2.25-3.36-5.17-6.06-8.78-8.07-4.23-2.37-9-3.55-14.3-3.55s-10.15,1.18-14.38,3.55c-4.23,2.37-7.54,5.68-9.91,9.91-2.37,4.24-3.55,9-3.55,14.3s1.18,10.08,3.55,14.3c2.37,4.24,5.68,7.54,9.91,9.91,4.24,2.37,9.03,3.55,14.38,3.55s10.08-1.18,14.3-3.55c3.6-2.02,6.53-4.71,8.78-8.07l-7.91-4.37c-1.48,2.15-3.35,3.89-5.61,5.22Z"></path><path class="st0" d="M318.33,247.52h-7.96l-27.85-39.09v39.09h-8.4v-53.55h7.96l27.85,39.17v-39.17h8.4v53.55Z"></path><path class="st0" d="M364.26,247.52h-36.03v-53.55h35.26v7.96h-26.47v15.22h24.86v7.88h-24.86v14.46h27.23v8.03Z"></path><path class="st0" d="M318.33,320.38h-8.8v-21.27h-26.54v21.27h-8.87v-53.55h8.87v24.1h26.54v-24.1h8.8v53.55Z"></path><path class="st0" d="M364.26,320.38h-36.03v-53.55h35.26v7.96h-26.47v15.22h24.86v7.88h-24.86v14.46h27.23v8.03Z"></path><path class="st0" d="M432.23,320.38h-8.72v-40.93l-17.13,40.93h-6.88l-16.45-40.93v40.93h-8.72v-53.55h11.32l17.29,43.53,18.36-43.53h10.94v53.55Z"></path><path class="st0" d="M451.16,266.83v53.55h-8.87v-53.55h8.87Z"></path></g><g><path class="st1" d="M182.81,347.4H0v-182.81h182.81v182.81ZM8.37,339.04h166.07v-166.07H8.37v166.07Z"></path><path class="st1" d="M148.87,319.7h-16.06v-98.52c-6.49,4.33-16.55,6.49-30.16,6.49v-12.65c19.65,0,30.93-7.58,33.84-22.73h12.39v127.4Z"></path><g><g><path class="st1" d="M36.81,304.38c-.81-.45-1.45-1.09-1.9-1.9-.46-.81-.68-1.73-.68-2.75s.23-1.93.68-2.75c.46-.81,1.09-1.45,1.9-1.9.81-.46,1.73-.68,2.76-.68s1.93.23,2.75.68c.81.45,1.45,1.09,1.9,1.9.46.81.68,1.73.68,2.75s-.23,1.93-.68,2.75c-.46.81-1.09,1.45-1.9,1.9-.81.46-1.73.68-2.75.68s-1.95-.23-2.76-.68ZM41.41,302.99c.55-.32.98-.77,1.29-1.34.31-.57.46-1.21.46-1.92s-.15-1.34-.46-1.92c-.31-.57-.74-1.02-1.29-1.34s-1.16-.48-1.84-.48-1.3.16-1.84.48c-.54.32-.97.77-1.29,1.34-.31.57-.47,1.21-.47,1.92s.16,1.36.47,1.92c.31.57.74,1.01,1.29,1.34.54.32,1.16.48,1.84.48s1.29-.16,1.84-.48Z"></path><path class="st1" d="M55.83,304.87h-1.59l-5.55-7.51v7.51h-1.67v-10.28h1.59l5.55,7.52v-7.52h1.67v10.28Z"></path><path class="st1" d="M65.37,304.87h-6.92v-10.28h6.77v1.53h-5.08v2.92h4.77v1.51h-4.77v2.78h5.23v1.54Z"></path><path class="st1" d="M71.2,298.9v1.41h-4.3v-1.41h4.3Z"></path><path class="st1" d="M73.81,304.46c-.71-.4-1.25-.97-1.6-1.7l1.16-.91c.65,1.13,1.67,1.69,3.07,1.69.7,0,1.24-.13,1.64-.4.4-.27.6-.64.6-1.11,0-.36-.13-.66-.4-.88s-.72-.41-1.37-.56l-1.54-.37c-.98-.24-1.7-.6-2.17-1.07-.47-.47-.7-1.07-.7-1.79,0-.59.15-1.1.45-1.55s.73-.79,1.3-1.04c.57-.24,1.24-.37,2.03-.37.9,0,1.69.18,2.37.53.68.35,1.19.84,1.52,1.45l-1.16.93c-.3-.45-.69-.79-1.15-1.04-.46-.24-.99-.36-1.6-.36-.67,0-1.17.13-1.53.37-.35.25-.53.6-.53,1.04,0,.33.13.61.4.83.27.22.74.41,1.42.57l1.6.38c.95.23,1.65.59,2.09,1.06.45.47.67,1.06.67,1.78,0,.63-.16,1.18-.49,1.64-.33.47-.79.83-1.4,1.09-.6.26-1.31.39-2.11.39-1,0-1.86-.2-2.57-.6Z"></path><path class="st1" d="M81.21,296.17v-1.57h8.3v1.57h-3.31v8.71h-1.69v-8.71h-3.31Z"></path><path class="st1" d="M92.6,304.38c-.81-.45-1.45-1.09-1.9-1.9-.46-.81-.68-1.73-.68-2.75s.23-1.93.68-2.75c.46-.81,1.09-1.45,1.9-1.9.81-.46,1.73-.68,2.76-.68s1.93.23,2.75.68c.81.45,1.45,1.09,1.9,1.9.46.81.68,1.73.68,2.75s-.23,1.93-.68,2.75c-.46.81-1.09,1.45-1.9,1.9-.81.46-1.73.68-2.75.68s-1.95-.23-2.76-.68ZM97.19,302.99c.55-.32.98-.77,1.29-1.34.31-.57.46-1.21.46-1.92s-.15-1.34-.46-1.92c-.31-.57-.74-1.02-1.29-1.34s-1.16-.48-1.84-.48-1.3.16-1.84.48c-.54.32-.97.77-1.29,1.34-.31.57-.47,1.21-.47,1.92s.16,1.36.47,1.92c.31.57.74,1.01,1.29,1.34.54.32,1.16.48,1.84.48s1.29-.16,1.84-.48Z"></path><path class="st1" d="M108.94,295.03c.51.29.91.7,1.19,1.22.28.52.43,1.11.43,1.78s-.14,1.28-.43,1.8c-.28.52-.68.93-1.19,1.23-.51.29-1.08.44-1.72.44h-2.72v3.38h-1.7v-10.28h4.42c.64,0,1.21.15,1.72.44ZM108.3,299.43c.34-.35.51-.82.51-1.4,0-.54-.17-.99-.51-1.36-.34-.37-.77-.55-1.29-.55h-2.5v3.83h2.5c.53,0,.96-.17,1.3-.52Z"></path></g><g><path class="st1" d="M35.55,319.09c-.72-.4-1.26-.98-1.61-1.72l1.17-.92c.65,1.13,1.68,1.7,3.09,1.7.7,0,1.25-.14,1.65-.41.4-.27.6-.64.6-1.12,0-.36-.13-.66-.4-.89s-.72-.41-1.37-.56l-1.55-.37c-.99-.25-1.71-.61-2.19-1.08-.47-.47-.71-1.07-.71-1.8,0-.59.15-1.11.45-1.56s.74-.8,1.31-1.04c.57-.25,1.25-.37,2.04-.37.91,0,1.7.18,2.39.53.69.35,1.2.84,1.53,1.46l-1.17.93c-.31-.45-.69-.8-1.15-1.04-.46-.24-1-.36-1.61-.36-.67,0-1.18.13-1.54.38-.36.25-.53.6-.53,1.04,0,.33.14.61.41.83.27.22.75.41,1.43.57l1.61.39c.96.24,1.66.59,2.11,1.06.45.47.67,1.07.67,1.79,0,.63-.17,1.18-.5,1.66-.33.47-.8.84-1.4,1.1-.61.26-1.31.39-2.12.39-1.01,0-1.87-.2-2.59-.61Z"></path><path class="st1" d="M46.86,319.15c-.65-.35-1.15-.85-1.51-1.5-.36-.64-.54-1.39-.54-2.22v-6.27h1.71v6.37c0,.79.23,1.41.68,1.87.45.46,1.08.69,1.88.69s1.46-.23,1.9-.68.66-1.08.66-1.88v-6.37h1.71v6.27c0,.85-.18,1.59-.52,2.23-.35.64-.85,1.14-1.49,1.49-.65.36-1.4.53-2.25.53s-1.58-.18-2.23-.53Z"></path><path class="st1" d="M62.88,309.6c.51.3.91.7,1.2,1.23.29.52.43,1.12.43,1.79s-.14,1.28-.43,1.81c-.29.53-.69.94-1.2,1.23-.51.3-1.09.44-1.73.44h-2.74v3.4h-1.71v-10.35h4.45c.64,0,1.22.15,1.73.44ZM62.24,314.03c.34-.35.51-.82.51-1.41,0-.54-.17-1-.52-1.37-.34-.37-.78-.56-1.3-.56h-2.51v3.86h2.51c.53,0,.97-.17,1.31-.52Z"></path><path class="st1" d="M73.45,309.6c.51.3.91.7,1.2,1.23.29.52.43,1.12.43,1.79s-.14,1.28-.43,1.81c-.29.53-.69.94-1.2,1.23-.51.3-1.09.44-1.73.44h-2.74v3.4h-1.71v-10.35h4.45c.64,0,1.22.15,1.73.44ZM72.81,314.03c.34-.35.51-.82.51-1.41,0-.54-.17-1-.52-1.37-.34-.37-.78-.56-1.3-.56h-2.51v3.86h2.51c.53,0,.97-.17,1.31-.52Z"></path><path class="st1" d="M84.66,319.51h-6.81v-10.35h1.71v8.77h5.1v1.58Z"></path><path class="st1" d="M89.03,309.16v10.35h-1.71v-10.35h1.71Z"></path><path class="st1" d="M99.51,319.51h-6.96v-10.35h6.81v1.54h-5.12v2.94h4.8v1.52h-4.8v2.79h5.26v1.55Z"></path><path class="st1" d="M104.35,319.48h-1.7v-10.32h4.63c.6,0,1.15.15,1.65.44.5.3.89.69,1.19,1.19.3.5.44,1.05.44,1.65,0,.77-.23,1.44-.7,2.02-.47.58-1.06.95-1.78,1.11l-.37.04,2.84,3.83-2.01.06-2.69-3.77h-1.49v3.74ZM108.29,313.67c.34-.34.51-.75.51-1.23s-.17-.89-.51-1.23c-.34-.34-.75-.51-1.23-.51h-2.71v3.49h2.71c.48,0,.89-.17,1.23-.51Z"></path></g></g></g></svg>